<?xml version="1.0" encoding="UTF-8" standalone="no"?>
<!DOCTYPE svg PUBLIC "-//W3C//DTD SVG 1.1//EN" "http://www.w3.org/Graphics/SVG/1.1/DTD/svg11.dtd">
<svg width="100%" height="100%" viewBox="0 0 419 123" version="1.1" xmlns="http://www.w3.org/2000/svg" xmlns:xlink="http://www.w3.org/1999/xlink" xml:space="preserve" xmlns:serif="http://www.serif.com/" style="fill-rule:evenodd;clip-rule:evenodd;stroke-linejoin:round;stroke-miterlimit:1.41421;">
    <g transform="matrix(1,0,0,1,-97.8546,-127.732)">
        <g transform="matrix(1,0,0,1,9.44882,-420.945)">
            <g transform="matrix(1,0,0,1,85.3818,626.437)">
                <path d="M35.568,1.008C29.328,1.008 23.232,0.192 17.28,-1.44C11.328,-3.072 6.576,-5.136 3.024,-7.632L9.936,-21.312C13.392,-19.008 17.544,-17.16 22.392,-15.768C27.24,-14.376 32.016,-13.68 36.72,-13.68C47.472,-13.68 52.848,-16.512 52.848,-22.176C52.848,-24.864 51.48,-26.736 48.744,-27.792C46.008,-28.848 41.616,-29.856 35.568,-30.816C29.232,-31.776 24.072,-32.88 20.088,-34.128C16.104,-35.376 12.648,-37.56 9.72,-40.68C6.792,-43.8 5.328,-48.144 5.328,-53.712C5.328,-61.008 8.376,-66.84 14.472,-71.208C20.568,-75.576 28.8,-77.76 39.168,-77.76C44.448,-77.76 49.728,-77.16 55.008,-75.96C60.288,-74.76 64.608,-73.152 67.968,-71.136L61.056,-57.456C54.528,-61.296 47.184,-63.216 39.024,-63.216C33.744,-63.216 29.736,-62.424 27,-60.84C24.264,-59.256 22.896,-57.168 22.896,-54.576C22.896,-51.696 24.36,-49.656 27.288,-48.456C30.216,-47.256 34.752,-46.128 40.896,-45.072C47.04,-44.112 52.08,-43.008 56.016,-41.76C59.952,-40.512 63.336,-38.4 66.168,-35.424C69,-32.448 70.416,-28.224 70.416,-22.752C70.416,-15.552 67.296,-9.792 61.056,-5.472C54.816,-1.152 46.32,1.008 35.568,1.008Z" style="fill:rgb(32,80,120);fill-rule:nonzero;"/>
                <path d="M120.528,1.008C112.752,1.008 105.744,-0.672 99.504,-4.032C93.264,-7.392 88.392,-12.072 84.888,-18.072C81.384,-24.072 79.632,-30.864 79.632,-38.448C79.632,-46.032 81.384,-52.8 84.888,-58.752C88.392,-64.704 93.264,-69.36 99.504,-72.72C105.744,-76.08 112.752,-77.76 120.528,-77.76C128.4,-77.76 135.456,-76.08 141.696,-72.72C147.936,-69.36 152.808,-64.704 156.312,-58.752C159.816,-52.8 161.568,-46.032 161.568,-38.448C161.568,-30.864 159.816,-24.072 156.312,-18.072C152.808,-12.072 147.936,-7.392 141.696,-4.032C135.456,-0.672 128.4,1.008 120.528,1.008ZM120.528,-14.4C127.152,-14.4 132.624,-16.608 136.944,-21.024C141.264,-25.44 143.424,-31.248 143.424,-38.448C143.424,-45.648 141.264,-51.456 136.944,-55.872C132.624,-60.288 127.152,-62.496 120.528,-62.496C113.904,-62.496 108.456,-60.288 104.184,-55.872C99.912,-51.456 97.776,-45.648 97.776,-38.448C97.776,-31.248 99.912,-25.44 104.184,-21.024C108.456,-16.608 113.904,-14.4 120.528,-14.4Z" style="fill:rgb(32,80,120);fill-rule:nonzero;"/>
                <path d="M222.48,-77.76C232.176,-77.76 239.952,-74.928 245.808,-69.264C251.664,-63.6 254.592,-55.2 254.592,-44.064L254.592,0L236.592,0L236.592,-41.76C236.592,-48.48 235.008,-53.544 231.84,-56.952C228.672,-60.36 224.16,-62.064 218.304,-62.064C211.68,-62.064 206.448,-60.072 202.608,-56.088C198.768,-52.104 196.848,-46.368 196.848,-38.88L196.848,0L178.848,0L178.848,-76.896L195.984,-76.896L195.984,-66.96C198.96,-70.512 202.704,-73.2 207.216,-75.024C211.728,-76.848 216.816,-77.76 222.48,-77.76Z" style="fill:rgb(32,80,120);fill-rule:nonzero;"/>
                <path d="M353.376,-76.896L353.376,0L336.24,0L336.24,-9.936C333.264,-6.288 329.592,-3.552 325.224,-1.728C320.856,0.096 316.032,1.008 310.752,1.008C303.264,1.008 296.568,-0.624 290.664,-3.888C284.76,-7.152 280.152,-11.76 276.84,-17.712C273.528,-23.664 271.872,-30.576 271.872,-38.448C271.872,-46.32 273.528,-53.208 276.84,-59.112C280.152,-65.016 284.76,-69.6 290.664,-72.864C296.568,-76.128 303.264,-77.76 310.752,-77.76C315.744,-77.76 320.328,-76.896 324.504,-75.168C328.68,-73.44 332.304,-70.896 335.376,-67.536L335.376,-76.896L353.376,-76.896ZM312.768,-14.4C319.392,-14.4 324.864,-16.608 329.184,-21.024C333.504,-25.44 335.664,-31.248 335.664,-38.448C335.664,-45.648 333.504,-51.456 329.184,-55.872C324.864,-60.288 319.392,-62.496 312.768,-62.496C306.144,-62.496 300.696,-60.288 296.424,-55.872C292.152,-51.456 290.016,-45.648 290.016,-38.448C290.016,-31.248 292.152,-25.44 296.424,-21.024C300.696,-16.608 306.144,-14.4 312.768,-14.4Z" style="fill:rgb(32,80,120);fill-rule:nonzero;"/>
                <path d="M394.128,-65.664C399.312,-73.728 408.432,-77.76 421.488,-77.76L421.488,-60.624C419.952,-60.912 418.56,-61.056 417.312,-61.056C410.304,-61.056 404.832,-59.016 400.896,-54.936C396.96,-50.856 394.992,-44.976 394.992,-37.296L394.992,0L376.992,0L376.992,-76.896L394.128,-76.896L394.128,-65.664Z" style="fill:rgb(32,80,120);fill-rule:nonzero;"/>
            </g>
        </g>
        <g transform="matrix(1,0,0,1,9.44882,-420.945)">
            <g transform="matrix(1.00106,0,0,0.998939,87.4369,664.784)">
                <path d="M11.582,-11.808C11.367,-13.485 10.017,-14.324 7.533,-14.324C5.049,-14.324 3.807,-13.55 3.807,-12.001C3.807,-11.356 4.07,-10.867 4.597,-10.533C5.124,-10.2 5.786,-9.926 6.581,-9.711C7.377,-9.496 8.243,-9.297 9.178,-9.114C10.114,-8.931 10.98,-8.673 11.775,-8.34C12.571,-8.006 13.233,-7.549 13.76,-6.968C14.286,-6.388 14.55,-5.592 14.55,-4.581C14.55,-3.011 13.958,-1.812 12.776,-0.984C11.593,-0.156 9.99,0.258 7.969,0.258C5.818,0.258 4.108,-0.28 2.839,-1.355C1.678,-2.301 1.054,-3.538 0.968,-5.065L3.484,-5.065C3.635,-3.581 4.474,-2.581 6.001,-2.065C6.56,-1.893 7.114,-1.807 7.662,-1.807C8.211,-1.807 8.721,-1.839 9.195,-1.903C9.668,-1.968 10.13,-2.086 10.582,-2.258C11.614,-2.667 12.13,-3.366 12.13,-4.355C12.13,-5.022 11.867,-5.533 11.34,-5.888C10.813,-6.243 10.152,-6.533 9.356,-6.759C8.56,-6.985 7.694,-7.189 6.759,-7.372C5.823,-7.555 4.958,-7.807 4.162,-8.13C3.366,-8.452 2.705,-8.893 2.178,-9.453C1.651,-10.012 1.387,-10.786 1.387,-11.775C1.387,-13.238 1.92,-14.372 2.984,-15.179C4.049,-15.986 5.624,-16.389 7.71,-16.389C9.689,-16.389 11.248,-15.916 12.388,-14.969C13.335,-14.174 13.883,-13.12 14.034,-11.808L11.582,-11.808Z" style="fill:rgb(246,130,18);fill-rule:nonzero;"/>
                <path d="M27.713,-12.872L23.68,0L20.905,0L15.84,-16.131L18.421,-16.131L22.293,-3L26.39,-16.131L29.035,-16.131L33.133,-3L37.004,-16.131L39.585,-16.131L34.52,0L31.745,0L27.713,-12.872Z" style="fill:rgb(246,130,18);fill-rule:nonzero;"/>
                <path d="M41.972,-16.131L44.392,-16.131L44.392,0L41.972,0L41.972,-16.131ZM44.489,-22.002L44.489,-18.841L41.875,-18.841L41.875,-22.002L44.489,-22.002Z" style="fill:rgb(246,130,18);fill-rule:nonzero;"/>
                <path d="M58.071,-11.808C57.856,-13.485 56.506,-14.324 54.022,-14.324C51.538,-14.324 50.296,-13.55 50.296,-12.001C50.296,-11.356 50.559,-10.867 51.086,-10.533C51.613,-10.2 52.274,-9.926 53.07,-9.711C53.866,-9.496 54.732,-9.297 55.667,-9.114C56.603,-8.931 57.468,-8.673 58.264,-8.34C59.06,-8.006 59.721,-7.549 60.248,-6.968C60.775,-6.388 61.039,-5.592 61.039,-4.581C61.039,-3.011 60.447,-1.812 59.264,-0.984C58.081,-0.156 56.479,0.258 54.457,0.258C52.307,0.258 50.597,-0.28 49.328,-1.355C48.166,-2.301 47.543,-3.538 47.457,-5.065L49.973,-5.065C50.124,-3.581 50.962,-2.581 52.489,-2.065C53.049,-1.893 53.602,-1.807 54.151,-1.807C54.699,-1.807 55.21,-1.839 55.683,-1.903C56.156,-1.968 56.619,-2.086 57.071,-2.258C58.103,-2.667 58.619,-3.366 58.619,-4.355C58.619,-5.022 58.356,-5.533 57.829,-5.888C57.302,-6.243 56.64,-6.533 55.845,-6.759C55.049,-6.985 54.183,-7.189 53.248,-7.372C52.312,-7.555 51.446,-7.807 50.65,-8.13C49.855,-8.452 49.193,-8.893 48.666,-9.453C48.139,-10.012 47.876,-10.786 47.876,-11.775C47.876,-13.238 48.408,-14.372 49.473,-15.179C50.538,-15.986 52.113,-16.389 54.199,-16.389C56.178,-16.389 57.737,-15.916 58.877,-14.969C59.823,-14.174 60.372,-13.12 60.522,-11.808L58.071,-11.808Z" style="fill:rgb(246,130,18);fill-rule:nonzero;"/>
                <path d="M73.621,-11.808C73.406,-13.485 72.056,-14.324 69.572,-14.324C67.088,-14.324 65.846,-13.55 65.846,-12.001C65.846,-11.356 66.109,-10.867 66.636,-10.533C67.163,-10.2 67.824,-9.926 68.62,-9.711C69.416,-9.496 70.282,-9.297 71.217,-9.114C72.153,-8.931 73.018,-8.673 73.814,-8.34C74.61,-8.006 75.271,-7.549 75.798,-6.968C76.325,-6.388 76.589,-5.592 76.589,-4.581C76.589,-3.011 75.997,-1.812 74.814,-0.984C73.631,-0.156 72.029,0.258 70.007,0.258C67.857,0.258 66.147,-0.28 64.878,-1.355C63.716,-2.301 63.093,-3.538 63.007,-5.065L65.523,-5.065C65.674,-3.581 66.512,-2.581 68.039,-2.065C68.599,-1.893 69.152,-1.807 69.701,-1.807C70.249,-1.807 70.76,-1.839 71.233,-1.903C71.706,-1.968 72.169,-2.086 72.621,-2.258C73.653,-2.667 74.169,-3.366 74.169,-4.355C74.169,-5.022 73.906,-5.533 73.379,-5.888C72.852,-6.243 72.19,-6.533 71.395,-6.759C70.599,-6.985 69.733,-7.189 68.798,-7.372C67.862,-7.555 66.996,-7.807 66.2,-8.13C65.405,-8.452 64.743,-8.893 64.216,-9.453C63.689,-10.012 63.426,-10.786 63.426,-11.775C63.426,-13.238 63.958,-14.372 65.023,-15.179C66.088,-15.986 67.663,-16.389 69.749,-16.389C71.728,-16.389 73.287,-15.916 74.427,-14.969C75.374,-14.174 75.922,-13.12 76.072,-11.808L73.621,-11.808Z" style="fill:rgb(246,130,18);fill-rule:nonzero;"/>
                <path d="M93.558,-16.389C95.967,-16.389 97.924,-15.582 99.43,-13.969C100.849,-12.421 101.559,-10.453 101.559,-8.065C101.559,-5.678 100.849,-3.71 99.43,-2.162C97.924,-0.548 95.967,0.258 93.558,0.258C91.149,0.258 89.192,-0.548 87.687,-2.162C86.267,-3.71 85.557,-5.678 85.557,-8.065C85.557,-10.453 86.267,-12.421 87.687,-13.969C89.192,-15.582 91.149,-16.389 93.558,-16.389ZM93.558,-1.936C95.3,-1.936 96.677,-2.538 97.688,-3.742C98.656,-4.882 99.139,-6.323 99.139,-8.065C99.139,-9.807 98.656,-11.248 97.688,-12.388C96.677,-13.593 95.3,-14.195 93.558,-14.195C91.816,-14.195 90.44,-13.593 89.429,-12.388C88.461,-11.248 87.977,-9.807 87.977,-8.065C87.977,-6.323 88.461,-4.882 89.429,-3.742C90.44,-2.538 91.816,-1.936 93.558,-1.936Z" style="fill:rgb(246,130,18);fill-rule:nonzero;"/>
                <path d="M107.173,-13.55C108.463,-15.442 110.388,-16.389 112.947,-16.389C115.27,-16.389 117.152,-15.582 118.593,-13.969C120.034,-12.378 120.755,-10.41 120.755,-8.065C120.755,-5.721 120.034,-3.753 118.593,-2.162C117.152,-0.548 115.216,0.258 112.786,0.258C110.356,0.258 108.485,-0.699 107.173,-2.613L107.173,6.388L104.753,6.388L104.753,-16.131L107.173,-16.131L107.173,-13.55ZM112.625,-14.195C110.883,-14.195 109.506,-13.593 108.495,-12.388C107.527,-11.248 107.043,-9.807 107.043,-8.065C107.043,-6.323 107.527,-4.882 108.495,-3.742C109.506,-2.538 110.883,-1.936 112.625,-1.936C114.345,-1.936 115.743,-2.538 116.819,-3.742C117.83,-4.882 118.335,-6.323 118.335,-8.065C118.335,-9.807 117.83,-11.248 116.819,-12.388C115.743,-13.593 114.345,-14.195 112.625,-14.195Z" style="fill:rgb(246,130,18);fill-rule:nonzero;"/>
                <path d="M131.111,-1.936C133.283,-1.936 134.842,-2.839 135.788,-4.646L138.434,-4.646C137.875,-3.183 136.987,-2 135.772,-1.097C134.557,-0.194 132.992,0.258 131.078,0.258C128.648,0.258 126.669,-0.548 125.142,-2.162C123.658,-3.732 122.916,-5.7 122.916,-8.065C122.916,-10.453 123.626,-12.421 125.045,-13.969C126.551,-15.582 128.508,-16.389 130.917,-16.389C133.326,-16.389 135.283,-15.582 136.789,-13.969C138.208,-12.421 138.918,-10.453 138.918,-8.065L138.918,-7.098L125.4,-7.098C125.572,-5.613 126.164,-4.388 127.175,-3.42C128.207,-2.43 129.519,-1.936 131.111,-1.936ZM130.917,-14.195C129.433,-14.195 128.185,-13.733 127.175,-12.808C126.228,-11.926 125.648,-10.775 125.433,-9.356L136.401,-9.356C136.186,-10.775 135.606,-11.926 134.659,-12.808C133.648,-13.733 132.401,-14.195 130.917,-14.195Z" style="fill:rgb(246,130,18);fill-rule:nonzero;"/>
                <path d="M144.305,-16.131L144.305,-13.614C144.886,-14.389 145.596,-15.045 146.435,-15.582C147.274,-16.12 148.231,-16.389 149.306,-16.389C150.381,-16.389 151.306,-16.238 152.08,-15.937C152.855,-15.636 153.532,-15.184 154.113,-14.582C155.446,-13.27 156.113,-11.539 156.113,-9.388L156.113,0L153.694,0L153.694,-9.324C153.694,-10.808 153.274,-11.991 152.435,-12.872C151.597,-13.754 150.51,-14.195 149.177,-14.195C147.822,-14.195 146.671,-13.743 145.725,-12.84C144.779,-11.915 144.305,-10.732 144.305,-9.291L144.305,0L141.886,0L141.886,-16.131L144.305,-16.131Z" style="fill:rgb(246,130,18);fill-rule:nonzero;"/>
                <path d="M179.599,-2.581C178.309,-0.688 176.384,0.258 173.825,0.258C171.502,0.258 169.609,-0.548 168.147,-2.162C166.727,-3.753 166.017,-5.721 166.017,-8.065C166.017,-10.41 166.727,-12.378 168.147,-13.969C169.609,-15.582 171.556,-16.389 173.986,-16.389C176.416,-16.389 178.288,-15.432 179.599,-13.518L179.599,-16.131L182.019,-16.131L182.019,0L179.599,0L179.599,-2.581ZM174.147,-1.936C175.889,-1.936 177.266,-2.538 178.277,-3.742C179.245,-4.882 179.729,-6.323 179.729,-8.065C179.729,-9.807 179.245,-11.248 178.277,-12.388C177.266,-13.593 175.889,-14.195 174.147,-14.195C172.427,-14.195 171.029,-13.593 169.953,-12.388C168.942,-11.248 168.437,-9.807 168.437,-8.065C168.437,-6.323 168.942,-4.882 169.953,-3.742C171.029,-2.538 172.427,-1.936 174.147,-1.936Z" style="fill:rgb(246,130,18);fill-rule:nonzero;"/>
                <path d="M193.665,-1.936C194.698,-1.936 195.612,-2.226 196.408,-2.807C197.203,-3.387 197.784,-4.14 198.15,-5.065L200.763,-5.065C200.268,-3.473 199.365,-2.194 198.053,-1.226C196.677,-0.237 195.042,0.258 193.149,0.258C190.783,0.258 188.859,-0.548 187.375,-2.162C185.933,-3.732 185.213,-5.7 185.213,-8.065C185.213,-10.431 185.933,-12.399 187.375,-13.969C188.859,-15.582 190.783,-16.389 193.149,-16.389C195.042,-16.389 196.677,-15.894 198.053,-14.905C199.365,-13.937 200.268,-12.657 200.763,-11.066L198.15,-11.066C197.784,-11.991 197.203,-12.743 196.408,-13.324C195.612,-13.905 194.698,-14.195 193.665,-14.195C192.633,-14.195 191.757,-14.034 191.036,-13.711C190.316,-13.389 189.708,-12.948 189.213,-12.388C188.16,-11.227 187.633,-9.786 187.633,-8.065C187.633,-6.345 188.16,-4.904 189.213,-3.742C190.289,-2.538 191.773,-1.936 193.665,-1.936Z" style="fill:rgb(246,130,18);fill-rule:nonzero;"/>
                <path d="M211.216,-1.936C212.248,-1.936 213.162,-2.226 213.958,-2.807C214.754,-3.387 215.334,-4.14 215.7,-5.065L218.313,-5.065C217.819,-3.473 216.915,-2.194 215.603,-1.226C214.227,-0.237 212.592,0.258 210.7,0.258C208.334,0.258 206.409,-0.548 204.925,-2.162C203.484,-3.732 202.763,-5.7 202.763,-8.065C202.763,-10.431 203.484,-12.399 204.925,-13.969C206.409,-15.582 208.334,-16.389 210.7,-16.389C212.592,-16.389 214.227,-15.894 215.603,-14.905C216.915,-13.937 217.819,-12.657 218.313,-11.066L215.7,-11.066C215.334,-11.991 214.754,-12.743 213.958,-13.324C213.162,-13.905 212.248,-14.195 211.216,-14.195C210.183,-14.195 209.307,-14.034 208.586,-13.711C207.866,-13.389 207.258,-12.948 206.764,-12.388C205.71,-11.227 205.183,-9.786 205.183,-8.065C205.183,-6.345 205.71,-4.904 206.764,-3.742C207.839,-2.538 209.323,-1.936 211.216,-1.936Z" style="fill:rgb(246,130,18);fill-rule:nonzero;"/>
                <path d="M228.508,-1.936C230.68,-1.936 232.239,-2.839 233.186,-4.646L235.831,-4.646C235.272,-3.183 234.385,-2 233.17,-1.097C231.954,-0.194 230.39,0.258 228.476,0.258C226.045,0.258 224.067,-0.548 222.539,-2.162C221.055,-3.732 220.313,-5.7 220.313,-8.065C220.313,-10.453 221.023,-12.421 222.443,-13.969C223.948,-15.582 225.905,-16.389 228.314,-16.389C230.723,-16.389 232.68,-15.582 234.186,-13.969C235.605,-12.421 236.315,-10.453 236.315,-8.065L236.315,-7.098L222.798,-7.098C222.97,-5.613 223.561,-4.388 224.572,-3.42C225.604,-2.43 226.916,-1.936 228.508,-1.936ZM228.314,-14.195C226.83,-14.195 225.583,-13.733 224.572,-12.808C223.626,-11.926 223.045,-10.775 222.83,-9.356L233.799,-9.356C233.584,-10.775 233.003,-11.926 232.057,-12.808C231.046,-13.733 229.798,-14.195 228.314,-14.195Z" style="fill:rgb(246,130,18);fill-rule:nonzero;"/>
                <path d="M248.768,-11.808C248.553,-13.485 247.203,-14.324 244.719,-14.324C242.235,-14.324 240.993,-13.55 240.993,-12.001C240.993,-11.356 241.256,-10.867 241.783,-10.533C242.31,-10.2 242.972,-9.926 243.768,-9.711C244.563,-9.496 245.429,-9.297 246.365,-9.114C247.3,-8.931 248.166,-8.673 248.962,-8.34C249.757,-8.006 250.419,-7.549 250.946,-6.968C251.473,-6.388 251.736,-5.592 251.736,-4.581C251.736,-3.011 251.145,-1.812 249.962,-0.984C248.779,-0.156 247.176,0.258 245.155,0.258C243.004,0.258 241.294,-0.28 240.025,-1.355C238.864,-2.301 238.24,-3.538 238.154,-5.065L240.67,-5.065C240.821,-3.581 241.66,-2.581 243.187,-2.065C243.746,-1.893 244.3,-1.807 244.848,-1.807C245.397,-1.807 245.908,-1.839 246.381,-1.903C246.854,-1.968 247.316,-2.086 247.768,-2.258C248.8,-2.667 249.316,-3.366 249.316,-4.355C249.316,-5.022 249.053,-5.533 248.526,-5.888C247.999,-6.243 247.338,-6.533 246.542,-6.759C245.746,-6.985 244.881,-7.189 243.945,-7.372C243.009,-7.555 242.144,-7.807 241.348,-8.13C240.552,-8.452 239.891,-8.893 239.364,-9.453C238.837,-10.012 238.573,-10.786 238.573,-11.775C238.573,-13.238 239.106,-14.372 240.17,-15.179C241.235,-15.986 242.81,-16.389 244.897,-16.389C246.875,-16.389 248.435,-15.916 249.575,-14.969C250.521,-14.174 251.069,-13.12 251.22,-11.808L248.768,-11.808Z" style="fill:rgb(246,130,18);fill-rule:nonzero;"/>
                <path d="M264.318,-11.808C264.103,-13.485 262.753,-14.324 260.269,-14.324C257.785,-14.324 256.543,-13.55 256.543,-12.001C256.543,-11.356 256.807,-10.867 257.333,-10.533C257.86,-10.2 258.522,-9.926 259.318,-9.711C260.113,-9.496 260.979,-9.297 261.915,-9.114C262.85,-8.931 263.716,-8.673 264.512,-8.34C265.307,-8.006 265.969,-7.549 266.496,-6.968C267.023,-6.388 267.286,-5.592 267.286,-4.581C267.286,-3.011 266.695,-1.812 265.512,-0.984C264.329,-0.156 262.726,0.258 260.705,0.258C258.554,0.258 256.844,-0.28 255.575,-1.355C254.414,-2.301 253.79,-3.538 253.704,-5.065L256.22,-5.065C256.371,-3.581 257.21,-2.581 258.737,-2.065C259.296,-1.893 259.85,-1.807 260.398,-1.807C260.947,-1.807 261.458,-1.839 261.931,-1.903C262.404,-1.968 262.866,-2.086 263.318,-2.258C264.35,-2.667 264.867,-3.366 264.867,-4.355C264.867,-5.022 264.603,-5.533 264.076,-5.888C263.549,-6.243 262.888,-6.533 262.092,-6.759C261.296,-6.985 260.431,-7.189 259.495,-7.372C258.559,-7.555 257.694,-7.807 256.898,-8.13C256.102,-8.452 255.441,-8.893 254.914,-9.453C254.387,-10.012 254.123,-10.786 254.123,-11.775C254.123,-13.238 254.656,-14.372 255.72,-15.179C256.785,-15.986 258.36,-16.389 260.447,-16.389C262.425,-16.389 263.985,-15.916 265.125,-14.969C266.071,-14.174 266.619,-13.12 266.77,-11.808L264.318,-11.808Z" style="fill:rgb(246,130,18);fill-rule:nonzero;"/>
                <path d="M285.772,-16.389L285.772,-13.969L285.482,-13.969C283.739,-13.969 282.32,-13.27 281.223,-11.872C280.191,-10.539 279.675,-8.947 279.675,-7.098L279.675,0L277.255,0L277.255,-16.131L279.675,-16.131L279.675,-12.163C280.191,-13.84 281.309,-15.077 283.03,-15.873C283.739,-16.217 284.6,-16.389 285.611,-16.389L285.772,-16.389Z" style="fill:rgb(246,130,18);fill-rule:nonzero;"/>
                <path d="M295.16,-1.936C297.332,-1.936 298.892,-2.839 299.838,-4.646L302.483,-4.646C301.924,-3.183 301.037,-2 299.822,-1.097C298.607,-0.194 297.042,0.258 295.128,0.258C292.697,0.258 290.719,-0.548 289.192,-2.162C287.708,-3.732 286.966,-5.7 286.966,-8.065C286.966,-10.453 287.675,-12.421 289.095,-13.969C290.6,-15.582 292.558,-16.389 294.966,-16.389C297.375,-16.389 299.332,-15.582 300.838,-13.969C302.258,-12.421 302.967,-10.453 302.967,-8.065L302.967,-7.098L289.45,-7.098C289.622,-5.613 290.213,-4.388 291.224,-3.42C292.256,-2.43 293.568,-1.936 295.16,-1.936ZM294.966,-14.195C293.482,-14.195 292.235,-13.733 291.224,-12.808C290.278,-11.926 289.697,-10.775 289.482,-9.356L300.451,-9.356C300.236,-10.775 299.655,-11.926 298.709,-12.808C297.698,-13.733 296.45,-14.195 294.966,-14.195Z" style="fill:rgb(246,130,18);fill-rule:nonzero;"/>
                <path d="M308.355,-13.55C309.645,-15.442 311.57,-16.389 314.13,-16.389C316.453,-16.389 318.334,-15.582 319.775,-13.969C321.217,-12.378 321.937,-10.41 321.937,-8.065C321.937,-5.721 321.217,-3.753 319.775,-2.162C318.334,-0.548 316.399,0.258 313.968,0.258C311.538,0.258 309.667,-0.699 308.355,-2.613L308.355,6.388L305.935,6.388L305.935,-16.131L308.355,-16.131L308.355,-13.55ZM313.807,-14.195C312.065,-14.195 310.689,-13.593 309.678,-12.388C308.71,-11.248 308.226,-9.807 308.226,-8.065C308.226,-6.323 308.71,-4.882 309.678,-3.742C310.689,-2.538 312.065,-1.936 313.807,-1.936C315.528,-1.936 316.926,-2.538 318.001,-3.742C319.012,-4.882 319.517,-6.323 319.517,-8.065C319.517,-9.807 319.012,-11.248 318.001,-12.388C316.926,-13.593 315.528,-14.195 313.807,-14.195Z" style="fill:rgb(246,130,18);fill-rule:nonzero;"/>
                <path d="M332.099,-16.389C334.508,-16.389 336.465,-15.582 337.971,-13.969C339.39,-12.421 340.1,-10.453 340.1,-8.065C340.1,-5.678 339.39,-3.71 337.971,-2.162C336.465,-0.548 334.508,0.258 332.099,0.258C329.691,0.258 327.733,-0.548 326.228,-2.162C324.808,-3.71 324.099,-5.678 324.099,-8.065C324.099,-10.453 324.808,-12.421 326.228,-13.969C327.733,-15.582 329.691,-16.389 332.099,-16.389ZM332.099,-1.936C333.841,-1.936 335.218,-2.538 336.229,-3.742C337.197,-4.882 337.681,-6.323 337.681,-8.065C337.681,-9.807 337.197,-11.248 336.229,-12.388C335.218,-13.593 333.841,-14.195 332.099,-14.195C330.357,-14.195 328.981,-13.593 327.97,-12.388C327.002,-11.248 326.518,-9.807 326.518,-8.065C326.518,-6.323 327.002,-4.882 327.97,-3.742C328.981,-2.538 330.357,-1.936 332.099,-1.936Z" style="fill:rgb(246,130,18);fill-rule:nonzero;"/>
                <path d="M352.779,-11.808C352.564,-13.485 351.214,-14.324 348.73,-14.324C346.246,-14.324 345.004,-13.55 345.004,-12.001C345.004,-11.356 345.267,-10.867 345.794,-10.533C346.321,-10.2 346.983,-9.926 347.778,-9.711C348.574,-9.496 349.44,-9.297 350.375,-9.114C351.311,-8.931 352.177,-8.673 352.973,-8.34C353.768,-8.006 354.43,-7.549 354.957,-6.968C355.484,-6.388 355.747,-5.592 355.747,-4.581C355.747,-3.011 355.156,-1.812 353.973,-0.984C352.79,-0.156 351.187,0.258 349.166,0.258C347.015,0.258 345.305,-0.28 344.036,-1.355C342.875,-2.301 342.251,-3.538 342.165,-5.065L344.681,-5.065C344.832,-3.581 345.671,-2.581 347.198,-2.065C347.757,-1.893 348.311,-1.807 348.859,-1.807C349.408,-1.807 349.918,-1.839 350.392,-1.903C350.865,-1.968 351.327,-2.086 351.779,-2.258C352.811,-2.667 353.327,-3.366 353.327,-4.355C353.327,-5.022 353.064,-5.533 352.537,-5.888C352.01,-6.243 351.349,-6.533 350.553,-6.759C349.757,-6.985 348.891,-7.189 347.956,-7.372C347.02,-7.555 346.155,-7.807 345.359,-8.13C344.563,-8.452 343.902,-8.893 343.375,-9.453C342.848,-10.012 342.584,-10.786 342.584,-11.775C342.584,-13.238 343.117,-14.372 344.181,-15.179C345.246,-15.986 346.821,-16.389 348.908,-16.389C350.886,-16.389 352.446,-15.916 353.585,-14.969C354.532,-14.174 355.08,-13.12 355.231,-11.808L352.779,-11.808Z" style="fill:rgb(246,130,18);fill-rule:nonzero;"/>
                <path d="M358.844,-16.131L361.264,-16.131L361.264,0L358.844,0L358.844,-16.131ZM361.36,-22.002L361.36,-18.841L358.747,-18.841L358.747,-22.002L361.36,-22.002Z" style="fill:rgb(246,130,18);fill-rule:nonzero;"/>
                <path d="M367.2,0L367.2,-14.001L363.909,-14.001L363.909,-16.131L367.2,-16.131L367.2,-21.906L369.619,-21.906L369.619,-16.131L373.329,-16.131L373.329,-14.001L369.619,-14.001L369.619,0L367.2,0Z" style="fill:rgb(246,130,18);fill-rule:nonzero;"/>
                <path d="M382.653,-16.389C385.062,-16.389 387.019,-15.582 388.525,-13.969C389.944,-12.421 390.654,-10.453 390.654,-8.065C390.654,-5.678 389.944,-3.71 388.525,-2.162C387.019,-0.548 385.062,0.258 382.653,0.258C380.244,0.258 378.287,-0.548 376.781,-2.162C375.362,-3.71 374.652,-5.678 374.652,-8.065C374.652,-10.453 375.362,-12.421 376.781,-13.969C378.287,-15.582 380.244,-16.389 382.653,-16.389ZM382.653,-1.936C384.395,-1.936 385.772,-2.538 386.783,-3.742C387.75,-4.882 388.234,-6.323 388.234,-8.065C388.234,-9.807 387.75,-11.248 386.783,-12.388C385.772,-13.593 384.395,-14.195 382.653,-14.195C380.911,-14.195 379.534,-13.593 378.524,-12.388C377.556,-11.248 377.072,-9.807 377.072,-8.065C377.072,-6.323 377.556,-4.882 378.524,-3.742C379.534,-2.538 380.911,-1.936 382.653,-1.936Z" style="fill:rgb(246,130,18);fill-rule:nonzero;"/>
                <path d="M402.365,-16.389L402.365,-13.969L402.074,-13.969C400.332,-13.969 398.913,-13.27 397.816,-11.872C396.784,-10.539 396.267,-8.947 396.267,-7.098L396.267,0L393.848,0L393.848,-16.131L396.267,-16.131L396.267,-12.163C396.784,-13.84 397.902,-15.077 399.623,-15.873C400.332,-16.217 401.193,-16.389 402.203,-16.389L402.365,-16.389Z" style="fill:rgb(246,130,18);fill-rule:nonzero;"/>
                <path d="M409.269,6.388L406.656,6.388L409.591,-0.226L403.01,-16.131L405.688,-16.131L410.882,-2.904L416.173,-16.131L418.818,-16.131L409.269,6.388Z" style="fill:rgb(246,130,18);fill-rule:nonzero;"/>
            </g>
        </g>
    </g>
</svg>
