<?xml version="1.0" encoding="UTF-8"?>
<svg xmlns="http://www.w3.org/2000/svg" xmlns:ooo="http://xml.openoffice.org/svg/export" xmlns:xlink="http://www.w3.org/1999/xlink" xmlns:presentation="http://sun.com/xmlns/staroffice/presentation" xmlns:smil="http://www.w3.org/2001/SMIL20/" xmlns:anim="urn:oasis:names:tc:opendocument:xmlns:animation:1.0" version="1.2" width="34.01mm" height="23.01mm" viewBox="2100 21500 3401 2301" preserveAspectRatio="xMidYMid" fill-rule="evenodd" stroke-width="28.222" stroke-linejoin="round" xml:space="preserve">
 <defs class="EmbeddedBulletChars">
  <g id="bullet-char-template-57356" transform="scale(0.00048828125,-0.00048828125)">
   <path d="M 580,1141 L 1163,571 580,0 -4,571 580,1141 Z"></path>
  </g>
  <g id="bullet-char-template-57354" transform="scale(0.00048828125,-0.00048828125)">
   <path d="M 8,1128 L 1137,1128 1137,0 8,0 8,1128 Z"></path>
  </g>
  <g id="bullet-char-template-10146" transform="scale(0.00048828125,-0.00048828125)">
   <path d="M 174,0 L 602,739 174,1481 1456,739 174,0 Z M 1358,739 L 309,1346 659,739 1358,739 Z"></path>
  </g>
  <g id="bullet-char-template-10132" transform="scale(0.00048828125,-0.00048828125)">
   <path d="M 2015,739 L 1276,0 717,0 1260,543 174,543 174,936 1260,936 717,1481 1274,1481 2015,739 Z"></path>
  </g>
  <g id="bullet-char-template-10007" transform="scale(0.00048828125,-0.00048828125)">
   <path d="M 0,-2 C -7,14 -16,27 -25,37 L 356,567 C 262,823 215,952 215,954 215,979 228,992 255,992 264,992 276,990 289,987 310,991 331,999 354,1012 L 381,999 492,748 772,1049 836,1024 860,1049 C 881,1039 901,1025 922,1006 886,937 835,863 770,784 769,783 710,716 594,584 L 774,223 C 774,196 753,168 711,139 L 727,119 C 717,90 699,76 672,76 641,76 570,178 457,381 L 164,-76 C 142,-110 111,-127 72,-127 30,-127 9,-110 8,-76 1,-67 -2,-52 -2,-32 -2,-23 -1,-13 0,-2 Z"></path>
  </g>
  <g id="bullet-char-template-10004" transform="scale(0.00048828125,-0.00048828125)">
   <path d="M 285,-33 C 182,-33 111,30 74,156 52,228 41,333 41,471 41,549 55,616 82,672 116,743 169,778 240,778 293,778 328,747 346,684 L 369,508 C 377,444 397,411 428,410 L 1163,1116 C 1174,1127 1196,1133 1229,1133 1271,1133 1292,1118 1292,1087 L 1292,965 C 1292,929 1282,901 1262,881 L 442,47 C 390,-6 338,-33 285,-33 Z"></path>
  </g>
  <g id="bullet-char-template-9679" transform="scale(0.00048828125,-0.00048828125)">
   <path d="M 813,0 C 632,0 489,54 383,161 276,268 223,411 223,592 223,773 276,916 383,1023 489,1130 632,1184 813,1184 992,1184 1136,1130 1245,1023 1353,916 1407,772 1407,592 1407,412 1353,268 1245,161 1136,54 992,0 813,0 Z"></path>
  </g>
  <g id="bullet-char-template-8226" transform="scale(0.00048828125,-0.00048828125)">
   <path d="M 346,457 C 273,457 209,483 155,535 101,586 74,649 74,723 74,796 101,859 155,911 209,963 273,989 346,989 419,989 480,963 531,910 582,859 608,796 608,723 608,648 583,586 532,535 482,483 420,457 346,457 Z"></path>
  </g>
  <g id="bullet-char-template-8211" transform="scale(0.00048828125,-0.00048828125)">
   <path d="M -4,459 L 1135,459 1135,606 -4,606 -4,459 Z"></path>
  </g>
  <g id="bullet-char-template-61548" transform="scale(0.00048828125,-0.00048828125)">
   <path d="M 173,740 C 173,903 231,1043 346,1159 462,1274 601,1332 765,1332 928,1332 1067,1274 1183,1159 1299,1043 1357,903 1357,740 1357,577 1299,437 1183,322 1067,206 928,148 765,148 601,148 462,206 346,322 231,437 173,577 173,740 Z"></path>
  </g>
 </defs>
 <g class="Page">
  <g class="com.sun.star.drawing.CustomShape">
   <g id="id3">
    <rect class="BoundingBox" stroke="none" fill="none" x="2100" y="21500" width="3401" height="2301"></rect>
   </g>
  </g>
  <g class="Group">
   <g class="com.sun.star.drawing.ClosedBezierShape">
    <g id="id4">
     <rect class="BoundingBox" stroke="none" fill="none" x="3113" y="21805" width="384" height="1762"></rect>
     <path fill="rgb(73,163,211)" stroke="none" d="M 3157,22383 L 3453,22383 3453,23566 3157,23566 3157,22383 Z M 3114,21983 C 3114,21935 3132,21894 3168,21858 3203,21823 3247,21805 3302,21805 3356,21805 3402,21823 3439,21856 3478,21890 3496,21932 3496,21983 3496,22034 3478,22076 3439,22110 3402,22143 3356,22159 3302,22159 3247,22159 3203,22142 3168,22107 3132,22072 3114,22030 3114,21983 Z"></path>
    </g>
   </g>
   <g class="com.sun.star.drawing.PolyPolygonShape">
    <g id="id5">
     <rect class="BoundingBox" stroke="none" fill="none" x="3798" y="21705" width="300" height="1862"></rect>
     <path fill="rgb(49,96,167)" stroke="none" d="M 3798,21705 L 4097,21705 4097,23566 3798,23566 3798,21705 Z"></path>
    </g>
   </g>
   <g class="com.sun.star.drawing.ClosedBezierShape">
    <g id="id6">
     <rect class="BoundingBox" stroke="none" fill="none" x="4330" y="22353" width="976" height="1243"></rect>
     <path fill="rgb(49,96,167)" stroke="none" d="M 5069,22712 C 5012,22632 4934,22591 4836,22591 4798,22591 4759,22601 4720,22621 4683,22641 4664,22672 4664,22717 4664,22752 4680,22779 4711,22795 4742,22812 4781,22825 4829,22838 4877,22849 4929,22861 4984,22873 5039,22885 5091,22905 5138,22930 5186,22955 5227,22990 5258,23034 5290,23078 5305,23139 5305,23216 5305,23287 5290,23347 5259,23394 5229,23443 5188,23481 5140,23511 5091,23541 5036,23563 4975,23576 4914,23588 4854,23595 4793,23595 4700,23595 4615,23582 4538,23555 4461,23529 4391,23481 4330,23412 L 4528,23228 C 4565,23272 4606,23306 4650,23333 4694,23360 4747,23374 4810,23374 4831,23374 4854,23371 4876,23366 4900,23361 4921,23353 4940,23342 4961,23330 4977,23316 4989,23299 5001,23282 5008,23261 5008,23238 5008,23198 4991,23167 4961,23147 4929,23128 4889,23111 4842,23099 4794,23087 4743,23076 4688,23065 4632,23055 4581,23037 4533,23013 4485,22990 4445,22956 4415,22914 4383,22871 4367,22812 4367,22736 4367,22671 4381,22613 4409,22566 4435,22517 4471,22478 4516,22446 4560,22414 4611,22391 4668,22376 4726,22361 4786,22354 4845,22354 4923,22354 5001,22367 5079,22394 5156,22422 5220,22470 5268,22534 L 5069,22712 Z"></path>
    </g>
   </g>
   <g class="com.sun.star.drawing.ClosedBezierShape">
    <g id="id7">
     <rect class="BoundingBox" stroke="none" fill="none" x="2295" y="23245" width="510" height="317"></rect>
     <path fill="rgb(49,96,167)" stroke="none" d="M 2308,23561 L 2308,23437 2386,23437 2386,23435 C 2357,23421 2335,23401 2319,23376 2303,23351 2295,23322 2295,23289 2295,23282 2296,23275 2298,23266 2299,23259 2301,23252 2303,23245 L 2422,23245 C 2419,23255 2417,23265 2415,23276 2414,23285 2413,23295 2413,23304 2413,23333 2418,23356 2428,23374 2440,23391 2452,23404 2465,23414 2479,23423 2493,23429 2507,23432 2520,23435 2530,23437 2537,23437 L 2803,23437 2803,23561 2308,23561 Z"></path>
    </g>
   </g>
   <g class="com.sun.star.drawing.ClosedBezierShape">
    <g id="id8">
     <rect class="BoundingBox" stroke="none" fill="none" x="2295" y="22691" width="521" height="502"></rect>
     <path fill="rgb(49,96,167)" stroke="none" d="M 2506,23067 C 2470,23063 2442,23049 2420,23027 2399,23006 2389,22976 2389,22940 2389,22901 2399,22871 2419,22849 2441,22826 2469,22815 2506,22815 L 2506,23067 Z M 2564,22692 C 2521,22692 2482,22698 2450,22709 2416,22720 2389,22736 2365,22755 2343,22776 2326,22800 2313,22828 2301,22857 2295,22888 2295,22923 2295,22959 2301,22995 2314,23027 2327,23060 2344,23088 2366,23112 2390,23136 2416,23156 2449,23170 2480,23184 2516,23191 2555,23191 2594,23191 2630,23184 2662,23170 2694,23156 2722,23136 2744,23112 2768,23088 2785,23060 2797,23027 2807,23001 2812,22973 2814,22944 L 2717,22944 C 2715,22975 2704,23002 2685,23024 2664,23048 2635,23063 2599,23067 L 2599,22692 2564,22692 Z"></path>
    </g>
   </g>
   <g class="com.sun.star.drawing.ClosedBezierShape">
    <g id="id9">
     <rect class="BoundingBox" stroke="none" fill="none" x="2295" y="22289" width="510" height="317"></rect>
     <path fill="rgb(73,163,211)" stroke="none" d="M 2308,22604 L 2308,22482 2386,22482 2386,22480 C 2357,22465 2335,22446 2319,22421 2303,22395 2295,22367 2295,22334 2295,22327 2296,22319 2297,22312 2299,22305 2301,22297 2303,22289 L 2422,22289 C 2419,22300 2417,22310 2415,22320 2414,22331 2413,22340 2413,22350 2413,22378 2418,22402 2428,22419 2440,22436 2452,22449 2465,22458 2479,22467 2493,22474 2507,22477 2520,22481 2530,22482 2537,22482 L 2803,22482 2803,22604 2308,22604 Z"></path>
    </g>
   </g>
   <g class="com.sun.star.drawing.ClosedBezierShape">
    <g id="id10">
     <rect class="BoundingBox" stroke="none" fill="none" x="2295" y="21707" width="522" height="538"></rect>
     <path fill="rgb(73,163,211)" stroke="none" d="M 2555,22120 C 2574,22120 2592,22116 2611,22110 2628,22103 2644,22093 2658,22081 2672,22068 2683,22053 2691,22036 2700,22017 2704,21997 2704,21975 2704,21952 2700,21932 2691,21914 2683,21897 2672,21881 2658,21868 2644,21856 2628,21847 2611,21840 2592,21834 2574,21831 2555,21831 2535,21831 2517,21834 2500,21840 2481,21847 2466,21856 2452,21868 2439,21881 2427,21897 2419,21914 2411,21932 2407,21952 2407,21975 2407,21997 2411,22017 2419,22036 2427,22053 2439,22068 2452,22081 2466,22093 2481,22103 2500,22110 2517,22116 2535,22120 2555,22120 Z M 2555,22243 C 2516,22243 2480,22236 2449,22222 2416,22207 2390,22189 2366,22164 2344,22141 2327,22113 2314,22079 2302,22047 2295,22012 2295,21975 2296,21938 2302,21903 2314,21870 2327,21838 2344,21809 2366,21785 2390,21761 2416,21743 2449,21728 2480,21714 2516,21707 2555,21707 2594,21707 2630,21714 2662,21728 2693,21743 2722,21761 2744,21785 2768,21809 2785,21838 2797,21870 2809,21903 2816,21938 2816,21975 2816,22012 2809,22047 2797,22079 2785,22113 2768,22141 2744,22164 2722,22189 2693,22207 2662,22222 2630,22236 2594,22243 2555,22243 Z"></path>
    </g>
   </g>
  </g>
 </g>
</svg>
