<?xml version="1.0" encoding="UTF-8" standalone="no"?>
<!DOCTYPE svg PUBLIC "-//W3C//DTD SVG 1.1//EN" "http://www.w3.org/Graphics/SVG/1.1/DTD/svg11.dtd">
<svg width="100%" height="100%" viewBox="0 0 97 66" version="1.1" xmlns="http://www.w3.org/2000/svg" xmlns:xlink="http://www.w3.org/1999/xlink" xml:space="preserve" xmlns:serif="http://www.serif.com/" style="fill-rule:evenodd;clip-rule:evenodd;stroke-linejoin:round;stroke-miterlimit:2;">
    <g>
        <g>
            <g id="id3">
                <rect x="0" y="0" width="96.406" height="65.225" style="fill:none;"/>
            </g>
        </g>
        <g>
            <g>
                <g id="id7">
                    <rect x="5.528" y="49.465" width="14.457" height="8.986" style="fill:none;"/>
                    <path d="M5.896,58.422L5.896,54.907L8.107,54.907L8.107,54.85C7.285,54.454 6.661,53.887 6.208,53.178C5.754,52.469 5.528,51.647 5.528,50.712C5.528,50.513 5.556,50.315 5.613,50.06C5.641,49.861 5.698,49.663 5.754,49.465L9.128,49.465C9.043,49.748 8.986,50.031 8.929,50.343C8.901,50.598 8.872,50.882 8.872,51.137C8.872,51.959 9.014,52.611 9.298,53.121C9.638,53.603 9.978,53.972 10.346,54.255C10.743,54.51 11.14,54.68 11.537,54.765C11.906,54.85 12.189,54.907 12.387,54.907L19.928,54.907L19.928,58.422L5.896,58.422Z" style="fill:rgb(49,96,167);"/>
                </g>
            </g>
            <g>
                <g id="id8">
                    <rect x="5.528" y="33.761" width="14.769" height="14.23" style="fill:none;"/>
                    <path d="M11.509,44.419C10.488,44.306 9.694,43.909 9.071,43.285C8.476,42.69 8.192,41.839 8.192,40.819C8.192,39.713 8.476,38.863 9.043,38.239C9.666,37.587 10.46,37.276 11.509,37.276L11.509,44.419ZM13.153,33.789C11.934,33.789 10.828,33.959 9.921,34.271C8.957,34.583 8.192,35.036 7.512,35.575C6.888,36.17 6.406,36.85 6.038,37.644C5.698,38.466 5.528,39.345 5.528,40.337C5.528,41.357 5.698,42.378 6.066,43.285C6.435,44.22 6.917,45.014 7.54,45.694C8.22,46.375 8.957,46.942 9.893,47.339C10.772,47.735 11.792,47.934 12.898,47.934C14.003,47.934 15.024,47.735 15.931,47.339C16.838,46.942 17.631,46.375 18.255,45.694C18.935,45.014 19.417,44.22 19.757,43.285C20.041,42.548 20.183,41.754 20.239,40.932L17.49,40.932C17.433,41.811 17.121,42.576 16.583,43.2C15.987,43.88 15.165,44.306 14.145,44.419L14.145,33.789L13.153,33.789Z" style="fill:rgb(49,96,167);"/>
                </g>
            </g>
            <g>
                <g id="id9">
                    <rect x="5.528" y="22.365" width="14.457" height="8.986" style="fill:none;"/>
                    <path d="M5.896,31.294L5.896,27.836L8.107,27.836L8.107,27.78C7.285,27.354 6.661,26.816 6.208,26.107C5.754,25.37 5.528,24.576 5.528,23.641C5.528,23.443 5.556,23.216 5.584,23.017C5.641,22.819 5.698,22.592 5.754,22.365L9.128,22.365C9.043,22.677 8.986,22.961 8.929,23.244C8.901,23.556 8.872,23.811 8.872,24.094C8.872,24.888 9.014,25.569 9.298,26.05C9.638,26.532 9.978,26.901 10.346,27.156C10.743,27.411 11.14,27.609 11.537,27.694C11.906,27.808 12.189,27.836 12.387,27.836L19.928,27.836L19.928,31.294L5.896,31.294Z" style="fill:rgb(73,163,211);"/>
                </g>
            </g>
            <g>
                <g id="id10">
                    <rect x="5.528" y="5.868" width="14.797" height="15.25" style="fill:none;"/>
                    <path d="M12.898,17.575C13.436,17.575 13.946,17.461 14.485,17.291C14.967,17.093 15.42,16.809 15.817,16.469C16.214,16.101 16.526,15.676 16.753,15.194C17.008,14.655 17.121,14.088 17.121,13.465C17.121,12.813 17.008,12.246 16.753,11.735C16.526,11.254 16.214,10.8 15.817,10.431C15.42,10.091 14.967,9.836 14.485,9.638C13.946,9.468 13.436,9.383 12.898,9.383C12.331,9.383 11.82,9.468 11.339,9.638C10.8,9.836 10.375,10.091 9.978,10.431C9.609,10.8 9.269,11.254 9.043,11.735C8.816,12.246 8.702,12.813 8.702,13.465C8.702,14.088 8.816,14.655 9.043,15.194C9.269,15.676 9.609,16.101 9.978,16.469C10.375,16.809 10.8,17.093 11.339,17.291C11.82,17.461 12.331,17.575 12.898,17.575ZM12.898,21.061C11.792,21.061 10.772,20.863 9.893,20.466C8.957,20.041 8.22,19.531 7.54,18.822C6.917,18.17 6.435,17.376 6.066,16.413C5.726,15.506 5.528,14.513 5.528,13.465C5.556,12.416 5.726,11.424 6.066,10.488C6.435,9.581 6.917,8.759 7.54,8.079C8.22,7.398 8.957,6.888 9.893,6.463C10.772,6.066 11.792,5.868 12.898,5.868C14.003,5.868 15.024,6.066 15.931,6.463C16.809,6.888 17.631,7.398 18.255,8.079C18.935,8.759 19.417,9.581 19.757,10.488C20.098,11.424 20.296,12.416 20.296,13.465C20.296,14.513 20.098,15.506 19.757,16.413C19.417,17.376 18.935,18.17 18.255,18.822C17.631,19.531 16.809,20.041 15.931,20.466C15.024,20.863 14.003,21.061 12.898,21.061Z" style="fill:rgb(73,163,211);"/>
                </g>
            </g>
        </g>
        <g transform="matrix(4.4127,0,0,5.14969,-242.051,-30.2335)">
            <g transform="matrix(1,0,0,1.21574,0,-3.71716)">
                <path d="M61.642,11.359L62.603,11.359L62.603,11.886C62.788,11.621 62.947,11.441 63.078,11.347C63.217,11.25 63.392,11.201 63.603,11.201C64.073,11.201 64.445,11.482 64.719,12.044C65.021,11.482 65.429,11.201 65.945,11.201C66.882,11.201 67.351,11.98 67.351,13.539L67.351,17.066L66.385,17.066L66.385,13.896C66.385,13.349 66.337,12.962 66.24,12.736C66.14,12.505 65.976,12.39 65.749,12.39C65.484,12.39 65.291,12.527 65.17,12.8C65.048,13.074 64.988,13.513 64.988,14.119L64.988,17.066L64.022,17.066L64.022,13.914C64.022,12.898 63.808,12.39 63.381,12.39C63.11,12.39 62.913,12.529 62.789,12.806C62.665,13.084 62.603,13.521 62.603,14.119L62.603,17.066L61.642,17.066L61.642,11.359Z" style="fill:rgb(73,163,211);fill-rule:nonzero;"/>
            </g>
            <g transform="matrix(1,0,0,1.21574,0,-3.71716)">
                <path d="M72.355,14.523L69.373,14.523C69.398,14.992 69.509,15.365 69.706,15.642C69.902,15.916 70.155,16.052 70.462,16.052C70.702,16.052 70.9,15.974 71.056,15.818C71.21,15.662 71.385,15.373 71.582,14.951L72.394,15.572C72.269,15.865 72.136,16.116 71.996,16.325C71.857,16.534 71.707,16.706 71.548,16.84C71.388,16.975 71.216,17.074 71.031,17.136C70.845,17.199 70.645,17.23 70.428,17.23C69.807,17.23 69.308,16.957 68.932,16.41C68.556,15.859 68.368,15.128 68.368,14.218C68.368,13.316 68.551,12.586 68.915,12.027C69.283,11.476 69.77,11.201 70.377,11.201C70.989,11.201 71.474,11.468 71.83,12.003C72.183,12.535 72.36,13.271 72.36,14.212L72.355,14.523ZM71.368,13.445C71.234,12.742 70.911,12.39 70.398,12.39C70.281,12.39 70.172,12.415 70.069,12.463C69.967,12.512 69.873,12.583 69.789,12.674C69.705,12.766 69.633,12.877 69.573,13.005C69.514,13.134 69.468,13.281 69.437,13.445L71.368,13.445Z" style="fill:rgb(49,96,167);fill-rule:nonzero;"/>
            </g>
            <path d="M74.402,12.589L74.402,17.066L73.437,17.066L73.437,12.589L73.095,12.589L73.095,11.359L73.437,11.359L73.437,9.156C73.437,8.437 73.528,7.929 73.71,7.632C73.961,7.218 74.326,7.011 74.804,7.011C74.975,7.011 75.19,7.08 75.45,7.216L75.45,8.564L75.351,8.494C75.143,8.349 74.972,8.277 74.838,8.277C74.667,8.277 74.552,8.361 74.492,8.529C74.432,8.693 74.402,9.009 74.402,9.478L74.402,11.359L75.45,11.359L75.45,12.589L74.402,12.589Z" style="fill:rgb(49,96,167);fill-rule:nonzero;"/>
        </g>
    </g>
</svg>
